<svg width="254" height="279" viewBox="0 0 254 279" fill="none" xmlns="http://www.w3.org/2000/svg">
<path d="M209 42C243.005 56.9207 253.09 69.0728 254 97.5V180C252.93 210.433 242.619 222.986 209 238V42Z" fill="#1A3EF4"/>
<path d="M45 238C10.9948 223.079 0.910086 210.927 4.85196e-06 182.5L1.20643e-05 100C1.07016 69.5667 11.3814 57.0139 45 42L45 238Z" fill="#1A3EF4"/>
<path d="M80 22.5354C117.71 -7.60474 138.728 -7.41857 176 22.5354V122.535C123.317 120.783 99.3636 122.519 80 134.035V22.5354Z" fill="#1A3EF4"/>
<path d="M79 197C79 174.909 96.9086 157 119 157H175V258C134 286 117.5 286 79 258V197Z" fill="#06F4C8"/>
</svg>
