<svg width="1722" height="279" viewBox="0 0 1722 279" fill="none" xmlns="http://www.w3.org/2000/svg">
<path d="M317.726 205L339.459 74.0909H371.099L362.406 126.634H413.99L422.683 74.0909H454.26L432.527 205H400.95L409.643 152.393H358.06L349.366 205H317.726ZM467.587 74.0909H502.935L521.472 128.871H522.815L559.441 74.0909H594.789L532.467 161.278L525.18 205H493.731L501.082 161.278L467.587 74.0909ZM586.32 205L608.053 74.0909H662.129C671.93 74.0909 680.091 75.9872 686.611 79.7798C693.131 83.5724 697.754 88.8778 700.482 95.696C703.209 102.514 703.827 110.419 702.335 119.411C700.886 128.487 697.626 136.392 692.555 143.125C687.527 149.858 681.05 155.078 673.124 158.786C665.197 162.493 656.185 164.347 646.085 164.347H612.783L616.938 139.418H644.423C649.239 139.418 653.393 138.587 656.888 136.925C660.425 135.263 663.259 132.94 665.389 129.957C667.52 126.974 668.926 123.459 669.608 119.411C670.247 115.362 669.991 111.868 668.841 108.928C667.69 105.945 665.624 103.643 662.641 102.024C659.7 100.405 655.865 99.5952 651.135 99.5952H635.538L617.96 205H586.32ZM703.566 205L725.299 74.0909H816.577L812.23 99.7869H752.593L748.246 126.634H803.218L798.871 152.393H743.9L739.553 179.304H799.191L794.844 205H703.566ZM814.659 205L836.392 74.0909H890.469C900.27 74.0909 908.452 75.8594 915.015 79.3963C921.577 82.8906 926.243 87.919 929.013 94.4815C931.783 101.001 932.422 108.736 930.931 117.685C929.482 126.719 926.243 134.411 921.215 140.76C916.229 147.067 909.794 151.882 901.911 155.206C894.07 158.53 885.164 160.192 875.192 160.192H840.995L845.213 135.263H873.53C878.26 135.263 882.351 134.645 885.803 133.409C889.255 132.131 892.003 130.213 894.049 127.656C896.137 125.057 897.522 121.733 898.203 117.685C898.843 113.636 898.544 110.291 897.309 107.649C896.115 104.964 894.006 102.962 890.98 101.641C887.998 100.277 884.162 99.5952 879.475 99.5952H863.878L846.3 205H814.659ZM898.267 145.17L920.959 205H886.442L864.453 145.17H898.267ZM1067.82 121.52H1036.24C1036.41 118.196 1036.09 115.234 1035.28 112.635C1034.47 109.993 1033.19 107.734 1031.45 105.859C1029.7 103.942 1027.53 102.493 1024.93 101.513C1022.33 100.533 1019.3 100.043 1015.85 100.043C1009.24 100.043 1003.26 101.683 997.887 104.964C992.518 108.246 988.022 112.976 984.4 119.155C980.778 125.334 978.243 132.749 976.794 141.399C975.473 149.751 975.494 156.719 976.858 162.301C978.264 167.884 980.863 172.081 984.656 174.893C988.449 177.663 993.264 179.048 999.102 179.048C1002.89 179.048 1006.41 178.601 1009.65 177.706C1012.93 176.768 1015.89 175.426 1018.53 173.679C1021.18 171.932 1023.46 169.822 1025.37 167.351C1027.33 164.837 1028.85 162.045 1029.91 158.977H1061.74C1060.17 164.73 1057.57 170.462 1053.95 176.172C1050.37 181.839 1045.85 186.974 1040.39 191.577C1034.94 196.179 1028.61 199.865 1021.41 202.635C1014.21 205.405 1006.2 206.79 997.376 206.79C985.316 206.79 974.919 204.084 966.183 198.672C957.49 193.26 951.204 185.419 947.326 175.149C943.491 164.837 942.767 152.351 945.153 137.692C947.497 123.501 952.12 111.548 959.024 101.832C965.97 92.1165 974.407 84.7656 984.336 79.7798C994.308 74.794 1004.94 72.3011 1016.23 72.3011C1024.41 72.3011 1031.77 73.4091 1038.29 75.625C1044.85 77.7983 1050.41 80.9943 1054.97 85.2131C1059.53 89.3892 1062.92 94.5241 1065.13 100.618C1067.39 106.712 1068.29 113.679 1067.82 121.52ZM1097.16 205H1063.15L1129.05 74.0909H1171.18L1193.61 205H1159.61L1145.22 107.074H1144.2L1097.16 205ZM1101.25 153.48H1172.33L1168.24 177.514H1097.16L1101.25 153.48ZM1207.71 205L1229.44 74.0909H1283.52C1293.32 74.0909 1301.48 75.9872 1308 79.7798C1314.52 83.5724 1319.14 88.8778 1321.87 95.696C1324.6 102.514 1325.21 110.419 1323.72 119.411C1322.27 128.487 1319.01 136.392 1313.94 143.125C1308.91 149.858 1302.44 155.078 1294.51 158.786C1286.58 162.493 1277.57 164.347 1267.47 164.347H1234.17L1238.32 139.418H1265.81C1270.63 139.418 1274.78 138.587 1278.27 136.925C1281.81 135.263 1284.65 132.94 1286.78 129.957C1288.91 126.974 1290.31 123.459 1290.99 119.411C1291.63 115.362 1291.38 111.868 1290.23 108.928C1289.08 105.945 1287.01 103.643 1284.03 102.024C1281.09 100.405 1277.25 99.5952 1272.52 99.5952H1256.93L1239.35 205H1207.71ZM1378.33 74.0909L1356.59 205H1324.95L1346.69 74.0909H1378.33ZM1389.56 99.7869L1393.91 74.0909H1504.55L1500.21 99.7869H1460.51L1443.13 205H1411.93L1429.32 99.7869H1389.56ZM1510.24 205H1476.24L1542.14 74.0909H1584.26L1606.7 205H1572.69L1558.31 107.074H1557.29L1510.24 205ZM1514.33 153.48H1585.41L1581.32 177.514H1510.24L1514.33 153.48ZM1620.79 205L1642.53 74.0909H1674.17L1656.78 179.304H1711.24L1706.89 205H1620.79Z" fill="black"/>
<path d="M209 42C243.005 56.9207 253.09 69.0728 254 97.5V180C252.93 210.433 242.619 222.986 209 238V42Z" fill="#1A3EF4"/>
<path d="M45 238C10.9948 223.079 0.910086 210.927 4.85196e-06 182.5L1.20643e-05 100C1.07016 69.5667 11.3814 57.0139 45 42L45 238Z" fill="#1A3EF4"/>
<path d="M80 22.5354C117.71 -7.60474 138.728 -7.41857 176 22.5354V122.535C123.317 120.783 99.3636 122.519 80 134.035V22.5354Z" fill="#1A3EF4"/>
<path d="M79 197C79 174.909 96.9086 157 119 157H175V258C134 286 117.5 286 79 258V197Z" fill="#06F4C8"/>
</svg>
